<svg xmlns="http://www.w3.org/2000/svg" viewBox="0 0 1000 228.056"><path fill="#2ea3e1" d="M812.712 106.775V83.8c0-56.947-41.078-82.727-79.14-82.727-52.543 0-88.99 41.649-88.99 91.718 0 53.412 34.29 86.342 77.087 86.342a81.27 81.27 0 0 0 60.587-23.684 99.5 99.5 0 0 0 8.772 12.956 18.92 18.92 0 0 0 15.018 7.807 25.35 25.35 0 0 0 10-2.272 20.47 20.47 0 0 0 12.789-12.86 17.5 17.5 0 0 0-2.579-14.228 81.1 81.1 0 0 1-13.509-40.122m-46.604-18.42c-1.64 28.63-17.544 53.332-44.851 50.78-21.29-1.922-33.798-24.64-29.903-52.632 3.894-27.99 21.42-47.631 43.859-45.789 21.991 1.15 32.342 19.614 30.877 47.666M881.273 195.134c-8.43 21.508-5.342 27.508 3.14 30.842a33.184 33.184 0 0 0 42.412-18.869l68.202-174.165c8.412-21.482 5.342-27.473-3.167-30.824a33.15 33.15 0 0 0-42.386 18.868L924.79 84.091l-35.763-66.754A33.263 33.263 0 0 0 844.773 3.6c-8.07 4.272-10.447 10.474.369 30.632l57.315 107.016zM600.907 1.127c-15.29 0-23.684 6.824-26.087 19.36l-17.658 99.121a.561.561 0 0 1-1.088 0L533.18 24.872c-4.281-16.465-9.167-23.833-23.184-23.833s-18.921 7.368-23.22 23.833l-22.894 94.736a.561.561 0 0 1-1.088 0l-17.657-99.122c-2.386-12.526-10.781-19.36-26.07-19.36-10.834 0-20.693 5.816-18.562 15.167l31.728 140.034a28.42 28.42 0 0 0 29.482 21.307 30.19 30.19 0 0 0 30.702-21.307l17.544-74.14 17.543 74.14a30.21 30.21 0 0 0 30.702 21.307 28.45 28.45 0 0 0 29.473-21.307l31.737-140.034c2.087-9.36-7.746-15.166-18.58-15.166M284.34 1.056c-59.491 0-90.587 39.877-90.587 89.017s31.087 89.052 90.587 89.052 90.56-39.894 90.56-89.034-31.052-89.035-90.56-89.035m0 138.42c-25.369 0-44.053-18.42-44.053-49.403S258.971 40.67 284.34 40.67s44.06 18.421 44.06 49.403-18.675 49.403-44.06 49.403M151.622 125.196a79.07 79.07 0 0 1-60.035 17.114 48.43 48.43 0 0 1-45.07-52.22c0-30.981 18.702-49.402 44.07-49.402a59.05 59.05 0 0 1 39.903 15.06 20.702 20.702 0 0 0 32.72-18.27c-2.545-16.22-31.992-36.404-72.623-36.404C31.097 1.074 0 40.951 0 90.091c0 46.368 27.447 89.052 94.885 89.052 35.605 0 61.21-14.693 64.912-34.658a19.66 19.66 0 0 0-8.158-19.298"/></svg>