<svg xmlns="http://www.w3.org/2000/svg" viewBox="0 0 166.718 41.161"><path fill="#ff5000" d="M124.289 20.58c0 11.368-9.213 20.581-20.576 20.581s-20.58-9.213-20.58-20.581S92.346 0 103.713 0s20.576 9.217 20.576 20.58"/><path fill="#fff" d="M113.486 20.58c0 5.399-4.373 9.778-9.773 9.778s-9.778-4.379-9.778-9.778 4.379-9.773 9.778-9.773 9.773 4.375 9.773 9.773"/><path fill="#231815" d="M108.855 20.58a5.143 5.143 0 1 1-10.287 0c0-2.845 2.301-5.144 5.144-5.144s5.143 2.304 5.143 5.144"/><path fill="#fff" d="m83.9 36.755-8.863-33.02a1.358 1.358 0 0 0-1.305-.996c-.45 0-.85.22-1.093.56L61.027 18.99l-.515.318-.514-.318L48.391 3.299a1.348 1.348 0 0 0-1.094-.56c-.619 0-1.147.425-1.305.996l-8.863 33.02-.042.325c0 .74.608 1.347 1.352 1.347h8.312c.62 0 1.149-.423 1.305-.992l2.959-11.336c.06-.243.405-.313.552-.104l8.095 11.29c.221.308.529.485.85.485s.634-.177.855-.485l8.092-11.29c.151-.209.491-.139.556.104l2.954 11.336c.161.569.685.992 1.31.992h8.307c.744 0 1.355-.607 1.355-1.347l-.041-.325M1.611 2.739c-.91 0-1.406.367-1.581 1.084-.133.584.157 1.298 1.167 1.986.901.613 1.434 1.639 1.434 3.562v3.104c0 .74.611 1.351 1.346 1.351h10.077c.74 0 1.342.611 1.342 1.341V37.08c0 .741.611 1.347 1.35 1.347h8.809c.744 0 1.355-.606 1.355-1.347V15.167c0-.73.602-1.341 1.342-1.341h10.499c.744 0 1.351-.611 1.351-1.351V4.09c0-.745-.607-1.351-1.351-1.351H1.611ZM165.105 38.427c.91 0 1.406-.367 1.582-1.084.133-.579-.152-1.301-1.168-1.985-.906-.616-1.43-1.645-1.43-3.563V4.09c0-.745-.601-1.351-1.349-1.351h-8.369c-.743 0-1.35.606-1.35 1.351v15.88c0 .56-.516.703-.842.294L139.066 3.791a2.834 2.834 0 0 0-2.197-1.052h-8.385c-.74 0-1.346.606-1.346 1.351v32.99a1.35 1.35 0 0 0 1.346 1.347h8.394c.75 0 1.362-.606 1.362-1.347V21.195c0-.545.463-.768.845-.302l13.084 16.491c.571.689 1.243 1.043 2.202 1.043h10.734Z"/></svg>